<mxfile host="Electron" modified="2023-10-19T12:02:28.988Z" agent="Mozilla/5.0 (Windows NT 10.0; Win64; x64) AppleWebKit/537.36 (KHTML, like Gecko) draw.io/22.0.3 Chrome/114.0.5735.289 Electron/25.8.4 Safari/537.36" etag="XeTAVfywSmqCJUYBGqEc" version="22.0.3" type="device">
  <diagram name="Page-1" id="929967ad-93f9-6ef4-fab6-5d389245f69c">
    <mxGraphModel dx="1050" dy="629" grid="1" gridSize="10" guides="1" tooltips="1" connect="1" arrows="1" fold="1" page="1" pageScale="1.5" pageWidth="1169" pageHeight="826" background="none" math="0" shadow="0">
      <root>
        <mxCell id="0" style=";html=1;" />
        <mxCell id="1" style=";html=1;" parent="0" />
        <mxCell id="1672d66443f91eb5-1" value="&lt;p style=&quot;margin: 0px ; margin-top: 4px ; margin-left: 10px ; text-align: left&quot;&gt;&lt;b&gt;On value change component&lt;/b&gt;&lt;/p&gt;" style="html=1;strokeWidth=1;shape=mxgraph.sysml.package;html=1;overflow=fill;whiteSpace=wrap;fillColor=none;gradientColor=none;fontSize=12;align=center;labelX=327.64;" parent="1" vertex="1">
          <mxGeometry x="240" y="300" width="363" height="620" as="geometry" />
        </mxCell>
        <mxCell id="L_T5HNgE2ZLmljCH-Bx7-1" value="" style="ellipse;html=1;shape=startState;fillColor=#000000;strokeColor=#ff0000;" parent="1" vertex="1">
          <mxGeometry x="390" y="350" width="30" height="30" as="geometry" />
        </mxCell>
        <mxCell id="L_T5HNgE2ZLmljCH-Bx7-2" value="" style="edgeStyle=orthogonalEdgeStyle;html=1;verticalAlign=bottom;endArrow=open;endSize=8;strokeColor=#ff0000;rounded=0;" parent="1" source="L_T5HNgE2ZLmljCH-Bx7-1" edge="1">
          <mxGeometry relative="1" as="geometry">
            <mxPoint x="405" y="440" as="targetPoint" />
          </mxGeometry>
        </mxCell>
        <mxCell id="L_T5HNgE2ZLmljCH-Bx7-3" value="Set default&lt;br&gt;background" style="html=1;whiteSpace=wrap;" parent="1" vertex="1">
          <mxGeometry x="350" y="440" width="110" height="50" as="geometry" />
        </mxCell>
        <mxCell id="L_T5HNgE2ZLmljCH-Bx7-4" value="Set default&lt;br&gt;icon" style="html=1;whiteSpace=wrap;" parent="1" vertex="1">
          <mxGeometry x="350" y="520" width="110" height="50" as="geometry" />
        </mxCell>
        <mxCell id="L_T5HNgE2ZLmljCH-Bx7-5" value="Is empty" style="rhombus;whiteSpace=wrap;html=1;fontColor=#000000;fillColor=#ffffc0;strokeColor=#ff0000;" parent="1" vertex="1">
          <mxGeometry x="365" y="600" width="80" height="40" as="geometry" />
        </mxCell>
        <mxCell id="L_T5HNgE2ZLmljCH-Bx7-6" value="no" style="edgeStyle=orthogonalEdgeStyle;html=1;align=left;verticalAlign=bottom;endArrow=open;endSize=8;strokeColor=#ff0000;rounded=0;entryX=1;entryY=0.5;entryDx=0;entryDy=0;dashed=1;" parent="1" source="L_T5HNgE2ZLmljCH-Bx7-5" target="L_T5HNgE2ZLmljCH-Bx7-8" edge="1">
          <mxGeometry x="-1" relative="1" as="geometry">
            <mxPoint x="540" y="620" as="targetPoint" />
            <Array as="points">
              <mxPoint x="510" y="620" />
              <mxPoint x="510" y="845" />
            </Array>
          </mxGeometry>
        </mxCell>
        <mxCell id="L_T5HNgE2ZLmljCH-Bx7-7" value="yes" style="edgeStyle=orthogonalEdgeStyle;html=1;align=left;verticalAlign=top;endArrow=open;endSize=8;strokeColor=#ff0000;rounded=0;entryX=0.5;entryY=0;entryDx=0;entryDy=0;" parent="1" source="L_T5HNgE2ZLmljCH-Bx7-5" target="L_T5HNgE2ZLmljCH-Bx7-9" edge="1">
          <mxGeometry x="-1" relative="1" as="geometry">
            <mxPoint x="400" y="700" as="targetPoint" />
          </mxGeometry>
        </mxCell>
        <mxCell id="L_T5HNgE2ZLmljCH-Bx7-8" value="" style="ellipse;html=1;shape=endState;fillColor=#000000;strokeColor=#ff0000;" parent="1" vertex="1">
          <mxGeometry x="385" y="830" width="30" height="30" as="geometry" />
        </mxCell>
        <mxCell id="L_T5HNgE2ZLmljCH-Bx7-9" value="Set placeholder&lt;br&gt;active" style="html=1;whiteSpace=wrap;" parent="1" vertex="1">
          <mxGeometry x="350" y="720" width="110" height="50" as="geometry" />
        </mxCell>
        <mxCell id="L_T5HNgE2ZLmljCH-Bx7-10" value="" style="edgeStyle=orthogonalEdgeStyle;html=1;verticalAlign=bottom;endArrow=open;endSize=8;strokeColor=#ff0000;rounded=0;exitX=0.5;exitY=1;exitDx=0;exitDy=0;" parent="1" source="L_T5HNgE2ZLmljCH-Bx7-3" edge="1">
          <mxGeometry relative="1" as="geometry">
            <mxPoint x="405" y="520" as="targetPoint" />
            <mxPoint x="404.5" y="500" as="sourcePoint" />
          </mxGeometry>
        </mxCell>
        <mxCell id="L_T5HNgE2ZLmljCH-Bx7-11" value="" style="edgeStyle=orthogonalEdgeStyle;html=1;verticalAlign=bottom;endArrow=open;endSize=8;strokeColor=#ff0000;rounded=0;exitX=0.5;exitY=1;exitDx=0;exitDy=0;" parent="1" edge="1">
          <mxGeometry relative="1" as="geometry">
            <mxPoint x="404.76" y="600" as="targetPoint" />
            <mxPoint x="404.76" y="570" as="sourcePoint" />
          </mxGeometry>
        </mxCell>
        <mxCell id="L_T5HNgE2ZLmljCH-Bx7-12" value="" style="edgeStyle=orthogonalEdgeStyle;html=1;align=left;verticalAlign=top;endArrow=open;endSize=8;strokeColor=#ff0000;rounded=0;entryX=0.5;entryY=0;entryDx=0;entryDy=0;dashed=1;" parent="1" target="L_T5HNgE2ZLmljCH-Bx7-8" edge="1">
          <mxGeometry x="-1" relative="1" as="geometry">
            <mxPoint x="399.76" y="850" as="targetPoint" />
            <mxPoint x="399.76" y="770" as="sourcePoint" />
          </mxGeometry>
        </mxCell>
      </root>
    </mxGraphModel>
  </diagram>
</mxfile>
